<svg id="SvgjsSvg1006" width="273" height="534" xmlns="http://www.w3.org/2000/svg" version="1.1" xmlns:xlink="http://www.w3.org/1999/xlink" xmlns:svgjs="http://svgjs.com/svgjs"><defs id="SvgjsDefs1007"><marker id="SvgjsMarker1017" markerWidth="16" markerHeight="12" refX="16" refY="6" viewBox="0 0 16 12" orient="auto" markerUnits="userSpaceOnUse"><path id="SvgjsPath1018" d="M0,2 L14,6 L0,11 L0,2" fill="#323232" stroke="#323232" stroke-width="2"></path></marker><marker id="SvgjsMarker1021" markerWidth="16" markerHeight="12" refX="16" refY="6" viewBox="0 0 16 12" orient="auto" markerUnits="userSpaceOnUse"><path id="SvgjsPath1022" d="M0,2 L14,6 L0,11 L0,2" fill="#323232" stroke="#323232" stroke-width="2"></path></marker><marker id="SvgjsMarker1025" markerWidth="16" markerHeight="12" refX="16" refY="6" viewBox="0 0 16 12" orient="auto" markerUnits="userSpaceOnUse"><path id="SvgjsPath1026" d="M0,2 L14,6 L0,11 L0,2" fill="#323232" stroke="#323232" stroke-width="2"></path></marker><marker id="SvgjsMarker1029" markerWidth="16" markerHeight="12" refX="16" refY="6" viewBox="0 0 16 12" orient="auto" markerUnits="userSpaceOnUse"><path id="SvgjsPath1030" d="M0,2 L14,6 L0,11 L0,2" fill="#323232" stroke="#323232" stroke-width="2"></path></marker></defs><rect id="SvgjsRect1008" width="273" height="534" fill="#ffffff"></rect><g id="SvgjsG1009" transform="translate(25,25)"><path id="SvgjsPath1010" d="M 0 4Q 0 0 4 0L 142 0Q 146 0 146 4L 146 66Q 146 70 142 70L 4 70Q 0 70 0 66Z" stroke="#323232" stroke-width="2" fill-opacity="1" fill="#e5e5e5"></path><g id="SvgjsG1011"><text id="SvgjsText1012" font-family="微软雅黑" text-anchor="middle" font-size="12px" width="48" fill="#323232" font-weight="400" align="middle" anchor="middle" family="微软雅黑" size="12px" weight="400" font-style="" y="25.7" transform="rotate(0)"><tspan id="SvgjsTspan1013" dy="15" x="73"><tspan id="SvgjsTspan1014" style="text-decoration:;">模型空间</tspan></tspan></text></g></g><g id="SvgjsG1015"><path id="SvgjsPath1016" d="M98 95L98 110.25L98 110.25L98 125.5" stroke="#323232" stroke-width="2" fill="none" marker-end="url(#SvgjsMarker1017)"></path></g><g id="SvgjsG1019"><path id="SvgjsPath1020" d="M98 195.5L98 210.75L98 210.75L98 226" stroke="#323232" stroke-width="2" fill="none" marker-end="url(#SvgjsMarker1021)"></path></g><g id="SvgjsG1023"><path id="SvgjsPath1024" d="M98 296L98 311.25L98 311.25L98 326.5" stroke="#323232" stroke-width="2" fill="none" marker-end="url(#SvgjsMarker1025)"></path></g><g id="SvgjsG1027"><path id="SvgjsPath1028" d="M98 396.5L98 411.75L98 411.75L98 427" stroke="#323232" stroke-width="2" fill="none" marker-end="url(#SvgjsMarker1029)"></path></g><g id="SvgjsG1031" transform="translate(25,125.5)"><path id="SvgjsPath1032" d="M 0 4Q 0 0 4 0L 142 0Q 146 0 146 4L 146 66Q 146 70 142 70L 4 70Q 0 70 0 66Z" stroke="#323232" stroke-width="2" fill-opacity="1" fill="#e5e5e5"></path><g id="SvgjsG1033"><text id="SvgjsText1034" font-family="微软雅黑" text-anchor="middle" font-size="12px" width="48" fill="#323232" font-weight="400" align="middle" anchor="middle" family="微软雅黑" size="12px" weight="400" font-style="" y="25.7" transform="rotate(0)"><tspan id="SvgjsTspan1035" dy="15" x="73"><tspan id="SvgjsTspan1036" style="text-decoration:;">世界空间</tspan></tspan></text></g></g><g id="SvgjsG1037" transform="translate(25,226)"><path id="SvgjsPath1038" d="M 0 4Q 0 0 4 0L 142 0Q 146 0 146 4L 146 66Q 146 70 142 70L 4 70Q 0 70 0 66Z" stroke="#323232" stroke-width="2" fill-opacity="1" fill="#e5e5e5"></path><g id="SvgjsG1039"><text id="SvgjsText1040" font-family="微软雅黑" text-anchor="middle" font-size="12px" width="48" fill="#323232" font-weight="400" align="middle" anchor="middle" family="微软雅黑" size="12px" weight="400" font-style="" y="25.7" transform="rotate(0)"><tspan id="SvgjsTspan1041" dy="15" x="73"><tspan id="SvgjsTspan1042" style="text-decoration:;">观察空间</tspan></tspan></text></g></g><g id="SvgjsG1043" transform="translate(25,326.5)"><path id="SvgjsPath1044" d="M 0 4Q 0 0 4 0L 142 0Q 146 0 146 4L 146 66Q 146 70 142 70L 4 70Q 0 70 0 66Z" stroke="#323232" stroke-width="2" fill-opacity="1" fill="#e5e5e5"></path><g id="SvgjsG1045"><text id="SvgjsText1046" font-family="微软雅黑" text-anchor="middle" font-size="12px" width="48" fill="#323232" font-weight="400" align="middle" anchor="middle" family="微软雅黑" size="12px" weight="400" font-style="" y="25.7" transform="rotate(0)"><tspan id="SvgjsTspan1047" dy="15" x="73"><tspan id="SvgjsTspan1048" style="text-decoration:;">裁剪空间</tspan></tspan></text></g></g><g id="SvgjsG1049" transform="translate(25,427)"><path id="SvgjsPath1050" d="M 0 4Q 0 0 4 0L 142 0Q 146 0 146 4L 146 66Q 146 70 142 70L 4 70Q 0 70 0 66Z" stroke="#323232" stroke-width="2" fill-opacity="1" fill="#e5e5e5"></path><g id="SvgjsG1051"><text id="SvgjsText1052" font-family="微软雅黑" text-anchor="middle" font-size="12px" width="48" fill="#323232" font-weight="400" align="middle" anchor="middle" family="微软雅黑" size="12px" weight="400" font-style="" y="25.7" transform="rotate(0)"><tspan id="SvgjsTspan1053" dy="15" x="73"><tspan id="SvgjsTspan1054" style="text-decoration:;">屏幕空间</tspan></tspan></text></g></g><g id="SvgjsG1055" transform="translate(148,50)"><path id="SvgjsPath1056" d="M 0 0L 84 0L 100 16L 100 60L 0 60L 0 0Z" stroke="#323232" stroke-width="2" fill-opacity="1" fill="#ffcc99"></path><path id="SvgjsPath1057" d="M 84 0L 84 16L 100 16" stroke="#323232" stroke-width="2" fill-opacity="1" fill="#ffcc99"></path><path id="SvgjsPath1058" d="M 0 0L 84 0L 100 16L 100 60L 0 60L 0 0Z" stroke="#323232" stroke-width="2" fill="none"></path><g id="SvgjsG1059"><text id="SvgjsText1060" font-family="微软雅黑" text-anchor="middle" font-size="13px" width="65" fill="#323232" font-weight="400" align="middle" anchor="middle" family="微软雅黑" size="13px" weight="400" font-style="" y="20.05" transform="rotate(0)"><tspan id="SvgjsTspan1061" dy="16" x="50"><tspan id="SvgjsTspan1062" style="text-decoration:;">左手坐标系</tspan></tspan></text></g></g><g id="SvgjsG1063" transform="translate(148,349.25)"><path id="SvgjsPath1064" d="M 0 0L 84 0L 100 16L 100 60L 0 60L 0 0Z" stroke="#323232" stroke-width="2" fill-opacity="1" fill="#ff9999"></path><path id="SvgjsPath1065" d="M 84 0L 84 16L 100 16" stroke="#323232" stroke-width="2" fill-opacity="1" fill="#ff9999"></path><path id="SvgjsPath1066" d="M 0 0L 84 0L 100 16L 100 60L 0 60L 0 0Z" stroke="#323232" stroke-width="2" fill="none"></path><g id="SvgjsG1067"><text id="SvgjsText1068" font-family="微软雅黑" text-anchor="middle" font-size="13px" width="65" fill="#323232" font-weight="400" align="middle" anchor="middle" family="微软雅黑" size="13px" weight="400" font-style="" y="20.05" transform="rotate(0)"><tspan id="SvgjsTspan1069" dy="16" x="50"><tspan id="SvgjsTspan1070" style="text-decoration:;">右手坐标系</tspan></tspan></text></g></g><g id="SvgjsG1071" transform="translate(148,149.75)"><path id="SvgjsPath1072" d="M 0 0L 84 0L 100 16L 100 60L 0 60L 0 0Z" stroke="#323232" stroke-width="2" fill-opacity="1" fill="#ffcc99"></path><path id="SvgjsPath1073" d="M 84 0L 84 16L 100 16" stroke="#323232" stroke-width="2" fill-opacity="1" fill="#ffcc99"></path><path id="SvgjsPath1074" d="M 0 0L 84 0L 100 16L 100 60L 0 60L 0 0Z" stroke="#323232" stroke-width="2" fill="none"></path><g id="SvgjsG1075"><text id="SvgjsText1076" font-family="微软雅黑" text-anchor="middle" font-size="13px" width="65" fill="#323232" font-weight="400" align="middle" anchor="middle" family="微软雅黑" size="13px" weight="400" font-style="" y="20.05" transform="rotate(0)"><tspan id="SvgjsTspan1077" dy="16" x="50"><tspan id="SvgjsTspan1078" style="text-decoration:;">左手坐标系</tspan></tspan></text></g></g><g id="SvgjsG1079" transform="translate(148,249.5)"><path id="SvgjsPath1080" d="M 0 0L 84 0L 100 16L 100 60L 0 60L 0 0Z" stroke="#323232" stroke-width="2" fill-opacity="1" fill="#ffcc99"></path><path id="SvgjsPath1081" d="M 84 0L 84 16L 100 16" stroke="#323232" stroke-width="2" fill-opacity="1" fill="#ffcc99"></path><path id="SvgjsPath1082" d="M 0 0L 84 0L 100 16L 100 60L 0 60L 0 0Z" stroke="#323232" stroke-width="2" fill="none"></path><g id="SvgjsG1083"><text id="SvgjsText1084" font-family="微软雅黑" text-anchor="middle" font-size="13px" width="65" fill="#323232" font-weight="400" align="middle" anchor="middle" family="微软雅黑" size="13px" weight="400" font-style="" y="20.05" transform="rotate(0)"><tspan id="SvgjsTspan1085" dy="16" x="50"><tspan id="SvgjsTspan1086" style="text-decoration:;">左手坐标系</tspan></tspan></text></g></g><g id="SvgjsG1087" transform="translate(148,449)"><path id="SvgjsPath1088" d="M 0 0L 84 0L 100 16L 100 60L 0 60L 0 0Z" stroke="#323232" stroke-width="2" fill-opacity="1" fill="#ffcc99"></path><path id="SvgjsPath1089" d="M 84 0L 84 16L 100 16" stroke="#323232" stroke-width="2" fill-opacity="1" fill="#ffcc99"></path><path id="SvgjsPath1090" d="M 0 0L 84 0L 100 16L 100 60L 0 60L 0 0Z" stroke="#323232" stroke-width="2" fill="none"></path><g id="SvgjsG1091"><text id="SvgjsText1092" font-family="微软雅黑" text-anchor="middle" font-size="13px" width="65" fill="#323232" font-weight="400" align="middle" anchor="middle" family="微软雅黑" size="13px" weight="400" font-style="" y="20.05" transform="rotate(0)"><tspan id="SvgjsTspan1093" dy="16" x="50"><tspan id="SvgjsTspan1094" style="text-decoration:;">左手坐标系</tspan></tspan></text></g></g></svg>