<svg id="SvgjsSvg1006" width="484" height="522" xmlns="http://www.w3.org/2000/svg" version="1.1" xmlns:xlink="http://www.w3.org/1999/xlink" xmlns:svgjs="http://svgjs.com/svgjs"><defs id="SvgjsDefs1007"><marker id="SvgjsMarker1019" markerWidth="16" markerHeight="12" refX="16" refY="6" viewBox="0 0 16 12" orient="auto" markerUnits="userSpaceOnUse"><path id="SvgjsPath1020" d="M0,2 L14,6 L0,11 L0,2" fill="#323232" stroke="#323232" stroke-width="2"></path></marker><marker id="SvgjsMarker1023" markerWidth="16" markerHeight="12" refX="16" refY="6" viewBox="0 0 16 12" orient="auto" markerUnits="userSpaceOnUse"><path id="SvgjsPath1024" d="M0,2 L14,6 L0,11 L0,2" fill="#323232" stroke="#323232" stroke-width="2"></path></marker><marker id="SvgjsMarker1027" markerWidth="16" markerHeight="12" refX="16" refY="6" viewBox="0 0 16 12" orient="auto" markerUnits="userSpaceOnUse"><path id="SvgjsPath1028" d="M0,2 L14,6 L0,11 L0,2" fill="#323232" stroke="#323232" stroke-width="2"></path></marker><marker id="SvgjsMarker1031" markerWidth="16" markerHeight="12" refX="16" refY="6" viewBox="0 0 16 12" orient="auto" markerUnits="userSpaceOnUse"><path id="SvgjsPath1032" d="M0,2 L14,6 L0,11 L0,2" fill="#323232" stroke="#323232" stroke-width="2"></path></marker></defs><rect id="SvgjsRect1008" width="484" height="522" fill="#ffffff"></rect><g id="SvgjsG1009" transform="translate(25,25)"><path id="SvgjsPath1010" d="M 0 4Q 0 0 4 0L 142 0Q 146 0 146 4L 146 66Q 146 70 142 70L 4 70Q 0 70 0 66Z" stroke="#323232" stroke-width="2" fill-opacity="1" fill="#e5e5e5"></path><g id="SvgjsG1011"><text id="SvgjsText1012" font-family="微软雅黑" text-anchor="middle" font-size="12px" width="96" fill="#323232" font-weight="400" align="middle" anchor="middle" family="微软雅黑" size="12px" weight="400" font-style="" y="18.2" transform="rotate(0)"><tspan id="SvgjsTspan1013" dy="15" x="73"><tspan id="SvgjsTspan1014" style="text-decoration:;">模型空间</tspan></tspan><tspan id="SvgjsTspan1015" dy="15" x="73"><tspan id="SvgjsTspan1016" style="text-decoration:;">也被称为对象空间</tspan></tspan></text></g></g><g id="SvgjsG1017"><path id="SvgjsPath1018" d="M98 95L98 110.25L98 110.25L98 125.5" stroke="#323232" stroke-width="2" fill="none" marker-end="url(#SvgjsMarker1019)"></path></g><g id="SvgjsG1021"><path id="SvgjsPath1022" d="M98 195.5L98 210.75L98 210.75L98 226" stroke="#323232" stroke-width="2" fill="none" marker-end="url(#SvgjsMarker1023)"></path></g><g id="SvgjsG1025"><path id="SvgjsPath1026" d="M98 296L98 311.25L98 311.25L98 326.5" stroke="#323232" stroke-width="2" fill="none" marker-end="url(#SvgjsMarker1027)"></path></g><g id="SvgjsG1029"><path id="SvgjsPath1030" d="M98 396.5L98 411.75L98 411.75L98 427" stroke="#323232" stroke-width="2" fill="none" marker-end="url(#SvgjsMarker1031)"></path></g><g id="SvgjsG1033" transform="translate(156,77)"><path id="SvgjsPath1034" d="M 0 0L 150 0L 150 60L 0 60Z" stroke="#323232" stroke-width="2" fill-opacity="1" fill="#ffcc99"></path><g id="SvgjsG1035"><text id="SvgjsText1036" font-family="微软雅黑" text-anchor="middle" font-size="13px" width="52" fill="#323232" font-weight="400" align="middle" anchor="middle" family="微软雅黑" size="13px" weight="400" font-style="" y="20.05" transform="rotate(0)"><tspan id="SvgjsTspan1037" dy="16" x="75"><tspan id="SvgjsTspan1038" style="text-decoration:;">模型变换</tspan></tspan></text></g></g><g id="SvgjsG1039" transform="translate(25,125.5)"><path id="SvgjsPath1040" d="M 0 4Q 0 0 4 0L 142 0Q 146 0 146 4L 146 66Q 146 70 142 70L 4 70Q 0 70 0 66Z" stroke="#323232" stroke-width="2" fill-opacity="1" fill="#e5e5e5"></path><g id="SvgjsG1041"><text id="SvgjsText1042" font-family="微软雅黑" text-anchor="middle" font-size="12px" width="48" fill="#323232" font-weight="400" align="middle" anchor="middle" family="微软雅黑" size="12px" weight="400" font-style="" y="25.7" transform="rotate(0)"><tspan id="SvgjsTspan1043" dy="15" x="73"><tspan id="SvgjsTspan1044" style="text-decoration:;">世界空间</tspan></tspan></text></g></g><g id="SvgjsG1045" transform="translate(156,178.66666666666663)"><path id="SvgjsPath1046" d="M 0 0L 150 0L 150 60L 0 60Z" stroke="#323232" stroke-width="2" fill-opacity="1" fill="#ffcc99"></path><g id="SvgjsG1047"><text id="SvgjsText1048" font-family="微软雅黑" text-anchor="middle" font-size="13px" width="52" fill="#323232" font-weight="400" align="middle" anchor="middle" family="微软雅黑" size="13px" weight="400" font-style="" y="20.05" transform="rotate(0)"><tspan id="SvgjsTspan1049" dy="16" x="75"><tspan id="SvgjsTspan1050" style="text-decoration:;">观察变换</tspan></tspan></text></g></g><g id="SvgjsG1051" transform="translate(25,226)"><path id="SvgjsPath1052" d="M 0 4Q 0 0 4 0L 142 0Q 146 0 146 4L 146 66Q 146 70 142 70L 4 70Q 0 70 0 66Z" stroke="#323232" stroke-width="2" fill-opacity="1" fill="#e5e5e5"></path><g id="SvgjsG1053"><text id="SvgjsText1054" font-family="微软雅黑" text-anchor="middle" font-size="12px" width="72" fill="#323232" font-weight="400" align="middle" anchor="middle" family="微软雅黑" size="12px" weight="400" font-style="" y="18.2" transform="rotate(0)"><tspan id="SvgjsTspan1055" dy="15" x="73"><tspan id="SvgjsTspan1056" style="text-decoration:;">观察空间</tspan></tspan><tspan id="SvgjsTspan1057" dy="15" x="73"><tspan id="SvgjsTspan1058" style="text-decoration:;">以相机为原点</tspan></tspan></text></g></g><g id="SvgjsG1059" transform="translate(156,280.33333333333326)"><path id="SvgjsPath1060" d="M 0 0L 150 0L 150 60L 0 60Z" stroke="#323232" stroke-width="2" fill-opacity="1" fill="#ffcc99"></path><g id="SvgjsG1061"><text id="SvgjsText1062" font-family="微软雅黑" text-anchor="middle" font-size="13px" width="52" fill="#323232" font-weight="400" align="middle" anchor="middle" family="微软雅黑" size="13px" weight="400" font-style="" y="20.05" transform="rotate(0)"><tspan id="SvgjsTspan1063" dy="16" x="75"><tspan id="SvgjsTspan1064" style="text-decoration:;">投影变换</tspan></tspan></text></g></g><g id="SvgjsG1065" transform="translate(25,326.5)"><path id="SvgjsPath1066" d="M 0 4Q 0 0 4 0L 142 0Q 146 0 146 4L 146 66Q 146 70 142 70L 4 70Q 0 70 0 66Z" stroke="#323232" stroke-width="2" fill-opacity="1" fill="#e5e5e5"></path><g id="SvgjsG1067"><text id="SvgjsText1068" font-family="微软雅黑" text-anchor="middle" font-size="12px" width="120" fill="#323232" font-weight="400" align="middle" anchor="middle" family="微软雅黑" size="12px" weight="400" font-style="" y="10.7" transform="rotate(0)"><tspan id="SvgjsTspan1069" dy="15" x="73"><tspan id="SvgjsTspan1070" style="text-decoration:;">裁剪空间</tspan></tspan><tspan id="SvgjsTspan1071" dy="15" x="73"><tspan id="SvgjsTspan1072" style="text-decoration:;">裁剪图元、并为投影做</tspan></tspan><tspan id="SvgjsTspan1073" dy="15" x="73"><tspan id="SvgjsTspan1074" style="text-decoration:;">准备</tspan></tspan></text></g></g><g id="SvgjsG1075" transform="translate(156,381.9999999999999)"><path id="SvgjsPath1076" d="M 0 0L 150 0L 150 60L 0 60Z" stroke="#323232" stroke-width="2" fill-opacity="1" fill="#ffcc99"></path><g id="SvgjsG1077"><text id="SvgjsText1078" font-family="微软雅黑" text-anchor="middle" font-size="13px" width="52" fill="#323232" font-weight="400" align="middle" anchor="middle" family="微软雅黑" size="13px" weight="400" font-style="" y="20.05" transform="rotate(0)"><tspan id="SvgjsTspan1079" dy="16" x="75"><tspan id="SvgjsTspan1080" style="text-decoration:;">屏幕映射</tspan></tspan></text></g></g><g id="SvgjsG1081" transform="translate(25,427)"><path id="SvgjsPath1082" d="M 0 4Q 0 0 4 0L 142 0Q 146 0 146 4L 146 66Q 146 70 142 70L 4 70Q 0 70 0 66Z" stroke="#323232" stroke-width="2" fill-opacity="1" fill="#e5e5e5"></path><g id="SvgjsG1083"><text id="SvgjsText1084" font-family="微软雅黑" text-anchor="middle" font-size="12px" width="125" fill="#323232" font-weight="400" align="middle" anchor="middle" family="微软雅黑" size="12px" weight="400" font-style="" y="10.7" transform="rotate(0)"><tspan id="SvgjsTspan1085" dy="15" x="73"><tspan id="SvgjsTspan1086" style="text-decoration:;">屏幕空间</tspan></tspan><tspan id="SvgjsTspan1087" dy="15" x="73"><tspan id="SvgjsTspan1088" style="text-decoration:;">xy坐标对应屏幕上的2D</tspan></tspan><tspan id="SvgjsTspan1089" dy="15" x="73"><tspan id="SvgjsTspan1090" style="text-decoration:;">像素坐标</tspan></tspan></text></g></g><g id="SvgjsG1091" transform="translate(320,77)"><path id="SvgjsPath1092" d="M 0 263.33333333333326Q 9 263.33333333333326 9 254.33333333333326L 9 140.66666666666663Q 9 131.66666666666663 22 131.66666666666663Q 9 131.66666666666663 9 122.66666666666663L 9 9Q 9 0 0 0" stroke="#323232" stroke-width="2" fill="none"></path><path id="SvgjsPath1093" d="M 0 0L 139 0L 139 263.33333333333326L 0 263.33333333333326Z" stroke="none" fill="none"></path><g id="SvgjsG1094"><text id="SvgjsText1095" font-family="微软雅黑" text-anchor="start" font-size="13px" width="107" fill="#323232" font-weight="400" align="middle" anchor="start" family="微软雅黑" size="13px" weight="400" font-style="" y="81.71666666666663" transform="rotate(0)"><tspan id="SvgjsTspan1096" dy="16" x="27"><tspan id="SvgjsTspan1097" style="text-decoration:;">在顶点着色器中通</tspan></tspan><tspan id="SvgjsTspan1098" dy="16" x="27"><tspan id="SvgjsTspan1099" style="text-decoration:;">常串联成一个矩</tspan></tspan><tspan id="SvgjsTspan1100" dy="16" x="27"><tspan id="SvgjsTspan1101" style="text-decoration:;">阵，即MVP矩阵，</tspan></tspan><tspan id="SvgjsTspan1102" dy="16" x="27"><tspan id="SvgjsTspan1103" style="text-decoration:;">用于将顶点从模型</tspan></tspan><tspan id="SvgjsTspan1104" dy="16" x="27"><tspan id="SvgjsTspan1105" style="text-decoration:;">空间转换到裁剪空</tspan></tspan><tspan id="SvgjsTspan1106" dy="16" x="27"><tspan id="SvgjsTspan1107" style="text-decoration:;">间中</tspan></tspan></text></g></g></svg>